<?xml version="1.0" encoding="UTF-8"?>
<!DOCTYPE svg PUBLIC "-//W3C//DTD SVG 1.1//EN" "http://www.w3.org/Graphics/SVG/1.1/DTD/svg11.dtd">
<!-- Creator: CorelDRAW 2026 -->
<svg xmlns="http://www.w3.org/2000/svg" xml:space="preserve" width="100%" height="100%" version="1.1" shape-rendering="geometricPrecision" text-rendering="geometricPrecision" image-rendering="optimizeQuality" fill-rule="evenodd" clip-rule="evenodd"
viewBox="0 0 2604.17 2604.17"
 xmlns:xlink="http://www.w3.org/1999/xlink"
 xmlns:xodm="http://www.corel.com/coreldraw/odm/2003">
 <g id="Layer_x0020_1">
  <metadata id="CorelCorpID_0Corel-Layer"/>
  <g id="_3067901855408">
   <g>
    <path fill="white" fill-rule="nonzero" d="M2522.25 41.87c22.31,20.96 36.29,45.94 41.9,75.39 1.48,7.74 2.28,15.73 2.28,23.6 0.1,772.23 0.12,1544.45 0.01,2316.68 -0,33.62 -12.08,63.13 -34.2,88.34 -22.58,25.74 -51.21,40.66 -84.98,45.61 -6.93,1.02 -14.05,1.07 -21.09,1.08 -68.73,0.07 -137.46,0.05 -206.2,0.05 -680.87,0 -1361.75,-0.01 -2042.63,0.03 -18.09,0 -35.74,-2.47 -52.47,-9.44 -47.51,-19.82 -76.24,-55.06 -85.89,-105.72 -1.38,-7.25 -1.66,-14.56 -1.66,-21.91 0.02,-770.76 0.11,-1541.52 -0.17,-2312.27 -0.02,-56.97 38.03,-118.22 107.06,-134.58 9.73,-2.3 19.67,-3.2 29.67,-3.44 1.46,-0.04 2.93,-0 4.41,-0 748.72,0 1497.45,0 2246.18,-0.02 19.26,0 37.98,2.71 55.91,10.02 15.36,6.26 29.24,14.87 41.89,26.6l0 0zm-1759.7 980.89c0.33,-19.98 0.67,-39.95 0.97,-59.93 0.39,-26.14 0.78,-52.28 1.11,-78.42 0.66,-51.4 1.72,-102.8 1.83,-154.2 0.27,-125.43 0.09,-250.86 0.09,-376.3 0,-2.64 0.09,-5.29 -0.04,-7.93 -0.08,-1.64 -0.51,-3.26 -0.76,-4.76 -10.41,-0.99 -514.51,-0.76 -521.43,0.25 -0.91,3.3 -0.47,6.81 -0.47,10.26 -0.02,630.09 -0.02,1260.19 -0.02,1890.28 0,2.06 -0.08,4.12 0.03,6.17 0.09,1.66 0.42,3.3 0.69,5.32 173.98,0 347.51,0 520.95,0 1.73,-3.66 1.01,-6.94 1.01,-10.09 0.05,-110.16 0.04,-220.31 0.04,-330.47 0,-40.24 0.1,-80.49 -0.11,-120.73 -0.03,-6.21 1.44,-10.96 5.67,-15.79 25.89,-29.64 51.41,-59.61 77.06,-89.45 48.63,-56.57 97.28,-113.14 145.93,-169.69 1.84,-2.14 3.84,-4.14 6.33,-6.81 19.15,31.45 37.5,62.46 56.06,93.35 18.59,30.94 37.09,61.94 55.65,92.9 18.56,30.96 37.15,61.9 55.71,92.86 18.41,30.71 36.77,61.44 55.19,92.15 18.56,30.96 37.17,61.89 55.73,92.85 18.56,30.96 37.08,61.94 55.62,92.91 18.55,30.97 37.1,61.93 55.66,92.89 18.54,30.94 37.1,61.86 55.85,93.12 202.2,0 404.27,0 606.34,-0.01 1.07,0 2.14,-0.13 4.47,-0.28 -10.52,-16.69 -20.77,-32.28 -30.84,-47.98 -10.14,-15.81 -20.38,-31.56 -30.57,-47.35 -10.19,-15.78 -20.35,-31.58 -30.54,-47.36 -10.18,-15.79 -20.37,-31.57 -30.56,-47.35 -10.19,-15.78 -20.39,-31.56 -30.57,-47.34 -10.19,-15.78 -20.37,-31.57 -30.55,-47.36 -10.17,-15.79 -20.33,-31.59 -30.51,-47.38 -10.18,-15.79 -20.39,-31.56 -30.57,-47.34 -10.19,-15.79 -20.36,-31.58 -30.54,-47.37 -10.18,-15.79 -20.34,-31.59 -30.53,-47.37 -10.19,-15.78 -20.42,-31.54 -30.61,-47.32 -10.34,-16.03 -20.65,-32.09 -30.99,-48.12 -10.18,-15.79 -20.39,-31.56 -30.58,-47.34 -10.19,-15.78 -20.37,-31.57 -30.55,-47.35 -10.18,-15.79 -20.35,-31.58 -30.54,-47.37 -10.19,-15.78 -20.39,-31.56 -30.58,-47.34 -10.19,-15.78 -20.38,-31.56 -30.56,-47.35 -10.18,-15.79 -20.32,-31.6 -30.51,-47.39 -10.19,-15.78 -20.41,-31.55 -30.59,-47.33 -10.19,-15.78 -20.37,-31.57 -30.54,-47.36 -10.18,-15.79 -20.35,-31.59 -30.53,-47.37 -10.18,-15.79 -20.42,-31.54 -30.56,-47.35 -10.08,-15.74 -20.47,-31.28 -30.29,-47.27 1.96,-2.53 3.53,-4.64 5.18,-6.67 57.21,-70.45 114.42,-140.89 171.63,-211.33 133.69,-164.59 267.37,-329.17 401.06,-493.76 28.14,-34.65 56.29,-69.3 84.39,-103.98 1.35,-1.67 3.64,-3.01 3.09,-5.74 -0.64,-0.2 -1.17,-0.51 -1.7,-0.53 -2.06,-0.07 -4.11,-0.07 -6.17,-0.07 -201.22,0.06 -402.43,0.11 -603.65,0.18 -0.29,0 -0.59,0.07 -0.86,0.17 -0.27,0.11 -0.5,0.3 -1.28,0.77 -1.81,2.31 -4,5.06 -6.15,7.83 -89.07,115.24 -178.21,230.43 -267.16,345.77 -54.51,70.69 -109.04,141.38 -162.97,212.51 -45.06,59.43 -88.26,120.22 -129.51,182.38 -26.3,39.63 -51.65,79.84 -75.99,120.7 -0.97,1.63 -1.49,3.71 -3.59,4.42 -0.27,-0.27 -0.6,-0.44 -0.59,-0.61 0.74,-63.44 1.5,-126.88 2.31,-192l0 0zm1432.69 1215.32c33.83,14.07 68.93,18.5 105.24,13.9 22.94,-2.91 44.72,-9.59 65.3,-20.05 79.04,-40.16 123.55,-126.09 109.57,-213.99 -6.76,-42.5 -24.72,-79.64 -54.99,-110.03 -51.59,-51.82 -114.14,-71.36 -186.02,-58.12 -53.58,9.87 -96.17,38.26 -127.49,82.66 -29.41,41.69 -41.16,88.35 -35.88,139.23 2.95,28.46 11.52,55.1 25.86,79.78 22.87,39.35 55.35,68.04 98.39,86.62z"/>
   </g>
   <path fill="black" fill-rule="nonzero" d="M762.53 1023.6c-0.78,64.28 -1.55,127.72 -2.29,191.16 -0,0.17 0.32,0.35 0.59,0.61 2.1,-0.7 2.62,-2.79 3.59,-4.42 24.33,-40.86 49.69,-81.07 75.99,-120.7 41.25,-62.15 84.45,-122.95 129.51,-182.38 53.93,-71.13 108.46,-141.82 162.97,-212.51 88.95,-115.34 178.09,-230.52 267.16,-345.77 2.15,-2.78 4.33,-5.53 6.15,-7.83 0.77,-0.47 1,-0.67 1.28,-0.77 0.27,-0.1 0.57,-0.17 0.86,-0.17 201.22,-0.06 402.43,-0.12 603.65,-0.18 2.06,0 4.11,-0 6.17,0.07 0.54,0.02 1.07,0.32 1.7,0.53 0.55,2.74 -1.74,4.07 -3.09,5.74 -28.09,34.69 -56.24,69.33 -84.39,103.98 -133.69,164.59 -267.37,329.18 -401.06,493.76 -57.21,70.44 -114.43,140.88 -171.63,211.33 -1.65,2.04 -3.22,4.14 -5.18,6.67 9.81,15.99 20.21,31.53 30.29,47.27 10.13,15.82 20.37,31.57 30.56,47.35 10.19,15.78 20.35,31.58 30.53,47.37 10.18,15.79 20.35,31.58 30.54,47.36 10.19,15.78 20.41,31.54 30.59,47.33 10.19,15.79 20.33,31.59 30.51,47.39 10.18,15.79 20.37,31.57 30.56,47.35 10.19,15.78 20.39,31.56 30.58,47.34 10.19,15.78 20.36,31.58 30.54,47.37 10.18,15.79 20.36,31.57 30.55,47.35 10.19,15.78 20.4,31.56 30.58,47.34 10.34,16.03 20.65,32.09 30.99,48.12 10.19,15.78 20.42,31.54 30.61,47.32 10.19,15.78 20.35,31.58 30.53,47.37 10.18,15.79 20.35,31.58 30.54,47.37 10.19,15.78 20.39,31.56 30.57,47.34 10.18,15.78 20.34,31.59 30.51,47.38 10.18,15.79 20.36,31.58 30.55,47.36 10.19,15.78 20.38,31.56 30.57,47.34 10.19,15.78 20.38,31.56 30.56,47.35 10.19,15.78 20.35,31.58 30.54,47.36 10.19,15.79 20.43,31.54 30.57,47.35 10.07,15.7 20.33,31.3 30.84,47.98 -2.33,0.15 -3.4,0.28 -4.47,0.28 -202.07,0.01 -404.15,0.01 -606.34,0.01 -18.75,-31.26 -37.31,-62.19 -55.85,-93.12 -18.56,-30.96 -37.11,-61.93 -55.66,-92.89 -18.54,-30.97 -37.06,-61.95 -55.62,-92.91 -18.56,-30.96 -37.17,-61.89 -55.73,-92.85 -18.41,-30.7 -36.78,-61.44 -55.19,-92.15 -18.56,-30.96 -37.15,-61.9 -55.71,-92.86 -18.56,-30.96 -37.06,-61.96 -55.65,-92.9 -18.56,-30.89 -36.91,-61.9 -56.06,-93.35 -2.48,2.67 -4.49,4.67 -6.33,6.81 -48.65,56.55 -97.3,113.12 -145.93,169.69 -25.66,29.84 -51.17,59.81 -77.06,89.45 -4.22,4.83 -5.7,9.58 -5.67,15.79 0.21,40.24 0.11,80.48 0.11,120.73 0,110.16 0.01,220.31 -0.04,330.47 0,3.15 0.72,6.43 -1.01,10.09 -173.44,0 -346.97,0 -520.95,0 -0.27,-2.02 -0.6,-3.66 -0.69,-5.32 -0.11,-2.05 -0.03,-4.11 -0.03,-6.17 0,-630.09 0,-1260.19 0.02,-1890.28 0,-3.45 -0.44,-6.96 0.47,-10.26 6.92,-1.01 511.02,-1.24 521.43,-0.25 0.25,1.5 0.68,3.12 0.76,4.76 0.13,2.64 0.04,5.29 0.04,7.93 0,125.43 0.18,250.86 -0.09,376.3 -0.11,51.4 -1.17,102.8 -1.83,154.2 -0.33,26.14 -0.72,52.28 -1.11,78.42 -0.3,19.98 -0.64,39.95 -0.99,60.77z"/>
   <path fill="#2663EB" fill-rule="nonzero" d="M2194.61 2237.85c-42.41,-18.35 -74.89,-47.03 -97.76,-86.39 -14.34,-24.68 -22.91,-51.31 -25.86,-79.78 -5.28,-50.89 6.46,-97.54 35.88,-139.23 31.32,-44.4 73.91,-72.79 127.49,-82.66 71.88,-13.24 134.42,6.3 186.02,58.12 30.26,30.39 48.23,67.53 54.99,110.03 13.98,87.91 -30.53,173.83 -109.57,213.99 -20.58,10.46 -42.36,17.14 -65.3,20.05 -36.31,4.6 -71.41,0.17 -105.87,-14.13z"/>
  </g>
 </g>
</svg>
